<mxfile host="app.diagrams.net" modified="2023-05-06T01:13:29.007Z" agent="Mozilla/5.0 (Windows NT 10.0; Win64; x64) AppleWebKit/537.36 (KHTML, like Gecko) Chrome/112.0.0.0 Safari/537.36" version="21.2.9" etag="Et4kiCBNcTmCnC9zpSQx" type="github">
  <diagram name="第 1 页" id="qUFHZ7GbICgbc7A0Bi2I">
    <mxGraphModel>
      <root>
        <mxCell id="0" />
        <mxCell id="1" parent="0" />
      </root>
    </mxGraphModel>
  </diagram>
</mxfile>
